<?xml version="1.0" standalone="no"?>
<!DOCTYPE svg PUBLIC "-//W3C//DTD SVG 20010904//EN"
 "http://www.w3.org/TR/2001/REC-SVG-20010904/DTD/svg10.dtd">
<svg version="1.0" xmlns="http://www.w3.org/2000/svg"
 width="512.000000pt" height="512.000000pt" viewBox="0 0 512.000000 512.000000"
 preserveAspectRatio="xMidYMid meet">
<metadata>
Created by potrace 1.14, written by Peter Selinger 2001-2017
</metadata>
<g transform="translate(0.000000,512.000000) scale(0.100000,-0.100000)"
fill="#000000" stroke="none">
<path d="M2412 4944 c-148 -32 -273 -105 -381 -220 l-70 -74 -61 39 c-122 79
-243 111 -405 106 -86 -2 -128 -8 -190 -28 -227 -74 -397 -244 -471 -472 -32
-96 -40 -263 -19 -360 41 -187 154 -353 311 -457 71 -46 199 -97 265 -105 27
-3 53 -11 58 -17 7 -9 64 -284 206 -1001 3 -16 9 -46 12 -65 7 -44 21 -72 32
-65 5 2 24 7 43 10 18 3 47 9 63 14 34 9 34 3 6 144 l-17 87 767 0 766 0 -13
-57 c-13 -56 -22 -107 -27 -147 -2 -15 11 -22 71 -36 89 -21 82 -30 109 120 2
14 29 149 59 300 30 151 57 286 60 300 3 14 21 104 40 200 20 96 36 180 37
187 0 12 15 16 82 28 175 29 373 166 470 324 177 292 132 658 -109 896 -59 57
-115 96 -198 135 -228 106 -505 86 -703 -50 l-46 -32 -66 72 c-100 108 -216
180 -353 217 -74 21 -249 24 -328 7z m311 -168 c128 -41 251 -140 320 -256 52
-86 104 -101 159 -47 82 79 192 138 298 157 75 14 202 6 269 -16 242 -82 407
-321 387 -563 -8 -103 -16 -130 -57 -218 -83 -175 -257 -293 -457 -310 -108
-9 -121 -27 -149 -208 -4 -26 -10 -57 -38 -186 -2 -9 -6 -33 -9 -53 -3 -19
-11 -57 -17 -83 -6 -27 -13 -59 -15 -73 -2 -14 -11 -56 -19 -95 -15 -69 -19
-89 -31 -152 l-6 -33 -153 0 -154 0 4 23 c8 50 15 99 35 242 12 83 23 162 26
178 3 17 0 27 -8 28 -7 0 -22 2 -33 4 -75 15 -115 16 -116 3 0 -7 -2 -22 -4
-33 -2 -11 -7 -40 -10 -65 -3 -25 -10 -70 -15 -100 -5 -30 -11 -77 -15 -105
-3 -27 -7 -61 -10 -75 -2 -14 -6 -42 -10 -62 l-6 -38 -124 0 -125 0 0 440 0
440 -80 0 -80 0 0 -440 0 -440 -124 0 -124 0 -6 28 c-5 25 -7 42 -22 147 -3
22 -9 67 -14 100 -5 33 -12 83 -15 110 -9 79 -16 105 -26 105 -6 0 -41 -5 -79
-11 l-69 -12 5 -36 c2 -20 7 -47 9 -61 3 -14 7 -47 10 -75 3 -27 8 -61 10 -75
3 -14 7 -38 9 -55 5 -38 18 -125 22 -147 3 -17 -10 -18 -150 -18 -151 0 -154
0 -159 23 -3 12 -40 198 -82 412 -43 215 -84 400 -91 412 -8 13 -27 24 -46 27
-18 3 -67 10 -108 16 -204 30 -374 177 -445 385 -21 61 -28 211 -13 280 62
293 352 487 649 435 83 -15 211 -78 273 -136 79 -73 133 -68 175 14 65 127
216 241 366 278 64 16 226 10 288 -10z"/>
<path d="M929 4937 c-203 -150 -334 -331 -403 -558 -35 -116 -41 -154 -41
-294 0 -140 7 -198 35 -287 l20 -66 73 27 c47 18 71 32 70 42 -1 8 -9 41 -18
74 -22 82 -27 272 -10 360 44 228 157 407 354 563 l24 18 -44 66 c-37 55 -47
64 -60 55z"/>
<path d="M709 3612 c-26 -15 -57 -34 -69 -42 l-22 -15 54 -74 c29 -41 58 -76
64 -78 6 -2 36 19 66 46 l56 49 -50 68 c-27 38 -50 70 -51 71 -1 0 -23 -11
-48 -25z"/>
<path d="M612 3019 c-270 -68 -456 -306 -453 -580 3 -227 136 -458 345 -598
152 -101 253 -131 436 -126 128 3 194 17 286 62 l40 19 300 -213 c164 -118
310 -221 324 -231 14 -9 55 -38 93 -65 l67 -49 -22 -17 c-13 -10 -111 -73
-218 -141 -571 -363 -577 -367 -622 -458 -19 -38 -23 -63 -23 -132 0 -72 4
-92 27 -135 56 -107 145 -165 262 -173 105 -6 148 15 401 195 591 420 695 493
705 493 6 0 188 -125 403 -278 604 -430 570 -408 662 -415 267 -22 437 287
275 501 -37 49 -78 76 -585 399 -126 80 -234 149 -238 153 -7 6 667 494 756
549 22 13 29 12 72 -8 93 -44 190 -61 320 -57 132 4 190 18 298 72 274 137
442 403 433 684 -9 254 -164 456 -416 540 -83 28 -260 35 -352 14 -230 -52
-429 -198 -530 -391 -59 -112 -77 -181 -85 -318 l-6 -110 -76 -48 c-42 -26
-159 -101 -261 -167 -102 -65 -239 -153 -305 -195 -66 -42 -175 -112 -242
-156 l-123 -79 -502 322 c-277 177 -504 322 -504 322 -1 1 -4 48 -7 106 -3 58
-7 114 -10 126 -73 304 -288 513 -612 591 -11 3 -69 6 -130 8 -82 2 -129 -2
-183 -16z m348 -168 c187 -59 349 -213 401 -380 24 -79 35 -203 21 -252 -6
-24 -6 -46 2 -69 9 -29 36 -50 186 -146 96 -62 195 -125 220 -140 25 -15 97
-61 160 -102 131 -85 131 -85 455 -292 264 -169 864 -553 990 -634 107 -69
231 -149 252 -161 68 -40 127 -91 140 -122 43 -104 -38 -219 -150 -212 -51 3
-34 -7 -347 215 -140 99 -283 200 -318 225 -34 24 -97 69 -140 100 -42 30
-102 73 -132 94 -93 65 -1152 816 -1195 847 -150 109 -211 148 -235 148 -14 0
-55 -16 -90 -35 -90 -48 -191 -69 -299 -62 -146 9 -273 69 -387 183 -145 145
-206 345 -156 511 47 153 154 255 312 297 75 20 225 14 310 -13z m3553 -1
c174 -65 275 -204 282 -387 6 -145 -51 -286 -158 -395 -126 -128 -249 -187
-407 -195 -113 -6 -192 11 -290 63 -35 19 -76 34 -91 34 -18 0 -77 -35 -175
-105 -82 -57 -153 -108 -159 -113 -5 -4 -104 -75 -220 -157 -115 -82 -226
-160 -246 -174 -20 -14 -57 -41 -82 -59 l-46 -32 -106 68 -105 68 240 155
c131 85 257 165 280 179 129 79 478 308 492 322 15 15 17 33 13 130 -3 90 0
128 16 188 19 72 75 179 121 230 74 81 206 160 319 190 96 26 237 22 322 -10z
m-2151 -1915 c-64 -47 -381 -273 -482 -343 -36 -26 -121 -86 -189 -135 -177
-127 -216 -139 -296 -92 -99 57 -100 187 -3 255 24 17 215 140 423 274 l379
243 113 -80 113 -80 -58 -42z"/>
<path d="M4755 1745 c-84 -66 -173 -114 -275 -148 -103 -35 -127 -39 -270 -42
-105 -3 -142 1 -234 22 -68 15 -116 21 -126 16 -33 -16 -370 -258 -370 -266 0
-18 84 -126 94 -120 6 4 80 56 165 116 l154 109 41 -11 c92 -24 158 -30 291
-27 110 3 160 9 235 29 159 43 320 127 431 226 l44 39 -55 56 -55 55 -70 -54z"/>
</g>
</svg>
